<svg xmlns="http://www.w3.org/2000/svg" width="200" height="100" viewBox="0 0 200 100"><g stroke-width="2.1"><g fill="none" stroke="#ffbf00" stroke-width="6.2"><path stroke-width="20.7" d="M-2120.7.5h630v630h-630z" transform="matrix(.12797 0 0 .12745 283.6 7.2)"/><path d="M66.1 70c1.6 2.7 3.7 4.6 7.5 4.6 3.1 0 5.1-1.5 5.1-3.7 0-2.6-2-3.5-5.5-5l-1.9-.8c-5.4-2.3-9-5.2-9-11.4 0-5.7 4.3-10 11-10 4.8 0 8.3 1.7 10.8 6l-6 3.9c-1.2-2.4-2.6-3.3-4.8-3.3-2.2 0-3.6 1.4-3.6 3.3 0 2.2 1.4 3.1 4.6 4.5l2 .8c6.4 2.8 10 5.6 10 11.9 0 6.8-5.3 10.5-12.5 10.5-7 0-11.6-3.3-13.8-7.7zm-26.7.7c1.1 2 2.2 3.9 4.8 3.9 2.5 0 4-1 4-4.8V44.2H56v25.7c0 7.8-4.6 11.4-11.4 11.4-6 0-9.5-3.1-11.3-6.9z" fill="#ffbf00" stroke="none"/></g><g style="line-height:125%"><path style="-inkscape-font-specification:'Keep Calm Medium'" d="M132.4 62.7q0 3.9-1.3 7.3t-3.6 6q-2.4 2.5-5.7 4-3.2 1.4-7 1.4H99V44h15.7q3.8 0 7 1.5 3.3 1.5 5.7 4 2.3 2.6 3.6 6 1.3 3.4 1.3 7.2zm-7.3-.2q0-2.6-.8-5-.9-2.2-2.5-4-1.6-1.7-3.9-2.7-2.3-1-5.2-1h-6.3v25.4h6.3q2.9 0 5.1-.9 2.3-1 3.9-2.7 1.6-1.7 2.4-4 1-2.3 1-5zm34 18.9h-6.8v-1.5q-1.8 1.3-3.8 1.7-2 .5-4 .5t-3.6-.6q-1.6-.6-2.8-1.6-1.2-1.2-1.8-2.7-.6-1.5-.6-3.3 0-2.3 1-4 1-1.7 2.7-2.8 1.8-1.2 4-1.7 2.4-.6 5-.6h4q0-2.4-1.6-3.8-1.5-1.4-4.4-1.4-1.5 0-3 .6-1.5.5-3 1.8l-4-4q2.2-2 5-3.2 2.9-1 5.9-1 2.8 0 5 .8t3.6 2.3q1.7 1.8 2.5 4 .7 2.1.7 5.6zm-6.8-6.7v-5h-3q-1.5 0-2.8.2-1.2.2-2.1.6-1 .4-1.5 1.1-.5.7-.5 1.7 0 1.4 1 2.3 1.2.9 3 .9 1.5 0 3-.5 1.4-.4 3-1.3zM189 54.4l-12.2 32q-1.4 3.6-3.6 5.2t-5.2 1.6h-1l-1.1-.3-2.3-6.2 1.7.5q.8.3 1.5.3 1.6 0 3-.8 1.3-.7 2-2.6l.9-2.8-10.4-27h7.3l6.2 17.4 5.9-17.3h7.3z" font-size="26.6" font-weight="500" font-family="Keep Calm" letter-spacing="0" word-spacing="0" fill="#fff"/></g><g style="line-height:125%"><path style="-inkscape-font-specification:'Keep Calm Medium'" d="M115 36H99.2l8.4-9.8 1-1.2.9-1.3.6-1.4q.3-.6.3-1.3 0-1.4-1-2.2-.9-.9-2.2-.9-1.5 0-2.7.8-1.2.8-2 2l-3-2.9q1.5-1.8 3.3-2.8 1.8-1 4.5-1 1.4 0 2.7.5 1.4.4 2.4 1.2 1 .9 1.6 2.1.7 1.2.7 2.9 0 1-.3 2l-.8 2-1.2 1.7-1.4 1.8-3.1 3.8h7.3zm21-10.5q0 2-.5 4-.7 2-1.9 3.5-1.2 1.6-2.9 2.5-1.7 1-3.9 1t-3.9-1q-1.7-1-2.9-2.5-1.2-1.6-1.8-3.5-.6-2-.6-4t.6-4.1q.6-2 1.7-3.7 1.2-1.7 2.9-2.7 1.7-1 4-1t4 1q1.7 1 3 2.7 1 1.6 1.7 3.7.6 2 .6 4.1zm-4.3 0q0-1.1-.3-2.5-.2-1.3-.8-2.5-.5-1.2-1.5-2-.9-.7-2.3-.7-1.3 0-2.2.8-1 .8-1.6 2-.5 1.1-.8 2.5l-.2 2.4.2 2.4q.3 1.2.9 2.3.6 1.1 1.5 1.8 1 .7 2.2.7t2.2-.7q1-.7 1.5-1.7.6-1.1 1-2.4l.2-2.4zm14.6 10.6H142V19l-3.6 1.4v-3.6l7.8-2.8zm20.5-6q0 1.6-.7 2.9-.7 1.2-1.9 2-1.2.7-2.7 1.1-1.5.4-3 .4-1.7 0-3.2-.4-1.5-.4-2.7-1.1-1.2-.8-1.9-2-.7-1.3-.7-3 0-.8.3-1.6t.8-1.5q.5-.7 1.2-1.2.6-.5 1.4-.8-.7-.3-1.2-.8-.6-.5-1-1.1l-.7-1.4q-.2-.7-.2-1.5 0-1.4.7-2.6.7-1.1 1.9-1.9 1.1-.8 2.5-1.2 1.5-.4 2.8-.4 1.4 0 2.8.4 1.3.4 2.4 1.2 1.2.8 1.8 2 .7 1 .7 2.5 0 .8-.2 1.5t-.7 1.4q-.4.6-1 1-.5.6-1.1.9.7.2 1.4.8.6.5 1.1 1.2.5.7.8 1.5.3.8.3 1.6zm-4.9-9.4q0-.6-.3-1-.2-.6-.7-1-.5-.4-1.1-.6-.6-.2-1.4-.2t-1.3.2q-.7.2-1.1.6-.5.4-.8 1-.2.4-.2 1l.2 1 .8 1 1 .5 1.4.2 1.4-.2q.6-.2 1-.6.6-.4.8-.9.3-.5.3-1zm.6 8.8q0-.6-.3-1.2l-.9-1q-.5-.4-1.3-.6-.7-.3-1.6-.3-.8 0-1.6.3-.7.2-1.2.6l-1 1-.2 1.2q0 .7.3 1.2t.9 1q.5.5 1.2.7.8.3 1.6.3.9 0 1.6-.3.8-.2 1.3-.7.5-.4.9-1 .3-.5.3-1.2z" font-weight="500" font-size="212.1" font-family="Keep Calm" letter-spacing="0" word-spacing="0" fill="#ffbf00"/></g></g></svg>